<svg width="29" height="29" viewBox="0 0 29 29" fill="none" xmlns="http://www.w3.org/2000/svg">
<path d="M14.5 14.2409C13.6988 14.2409 12.9305 13.9336 12.364 13.3867C11.7975 12.8397 11.4792 12.0978 11.4792 11.3243C11.4792 10.5507 11.7975 9.80885 12.364 9.26187C12.9305 8.71488 13.6988 8.40759 14.5 8.40759C15.3012 8.40759 16.0696 8.71488 16.6361 9.26187C17.2026 9.80885 17.5209 10.5507 17.5209 11.3243C17.5209 11.7073 17.4427 12.0866 17.2909 12.4404C17.1391 12.7943 16.9166 13.1158 16.6361 13.3867C16.3556 13.6575 16.0225 13.8723 15.656 14.0189C15.2895 14.1655 14.8967 14.2409 14.5 14.2409ZM14.5 3.15759C12.2567 3.15759 10.1053 4.01801 8.51908 5.54955C6.93283 7.0811 6.04169 9.15833 6.04169 11.3243C6.04169 17.4493 14.5 26.4909 14.5 26.4909C14.5 26.4909 22.9584 17.4493 22.9584 11.3243C22.9584 9.15833 22.0672 7.0811 20.481 5.54955C18.8947 4.01801 16.7433 3.15759 14.5 3.15759Z" fill="black"/>
</svg>
