<svg width="29" height="30" viewBox="0 0 29 30" fill="none" xmlns="http://www.w3.org/2000/svg">
<path d="M7.99917 13.8621C9.73917 17.2817 12.5425 20.073 15.9621 21.8251L18.6204 19.1667C18.9467 18.8405 19.43 18.7317 19.8529 18.8767C21.2063 19.3238 22.6683 19.5655 24.1667 19.5655C24.8313 19.5655 25.375 20.1092 25.375 20.7738V24.9909C25.375 25.6555 24.8313 26.1992 24.1667 26.1992C12.8204 26.1992 3.625 17.0038 3.625 5.65755C3.625 4.99297 4.16875 4.44922 4.83333 4.44922H9.0625C9.72708 4.44922 10.2708 4.99297 10.2708 5.65755C10.2708 7.16797 10.5125 8.61797 10.9596 9.9713C11.0925 10.3942 10.9958 10.8655 10.6575 11.2038L7.99917 13.8621Z" fill="black"/>
</svg>
